<?xml version="1.0" standalone="no"?>
<!DOCTYPE svg PUBLIC "-//W3C//DTD SVG 20010904//EN"
 "http://www.w3.org/TR/2001/REC-SVG-20010904/DTD/svg10.dtd">
<svg version="1.0" xmlns="http://www.w3.org/2000/svg"
 width="89.000000pt" height="89.000000pt" viewBox="0 0 89.000000 89.000000"
 preserveAspectRatio="xMidYMid meet">

<g transform="translate(0.000000,89.000000) scale(0.100000,-0.100000)"
fill="#000000" stroke="none">
<path d="M492 694 c-5 -9 -8 -24 -6 -33 3 -12 -52 -48 -216 -140 l-220 -124 0
-95 c0 -73 -4 -100 -16 -113 -10 -11 -13 -25 -9 -38 6 -21 11 -21 359 -21 335
0 354 1 370 19 16 17 17 40 14 208 -3 211 -11 238 -82 301 -57 49 -174 71
-194 36z m124 -30 c18 -9 39 -23 46 -32 9 -11 0 -8 -25 7 -20 12 -58 26 -85
31 l-47 8 38 1 c22 0 54 -6 73 -15z m-6 -46 c54 -28 80 -75 87 -158 5 -51 3
-60 -11 -60 -12 0 -16 9 -16 38 0 20 -5 53 -10 73 -11 40 -53 85 -70 74 -7 -4
-3 -15 14 -30 25 -23 46 -80 46 -127 l0 -28 -267 0 c-158 0 -263 4 -257 9 24
23 401 231 419 231 12 0 41 -10 65 -22z m78 -248 c9 0 12 -10 10 -27 -2 -16
-9 -28 -17 -28 -23 0 -24 -22 0 -28 39 -10 9 -27 -49 -27 -69 0 -59 -17 13
-22 36 -2 50 -7 50 -18 0 -13 -43 -15 -312 -18 -192 -1 -313 1 -313 7 0 5 10
11 22 13 32 5 35 28 4 28 -14 0 -26 4 -26 10 0 5 39 11 87 12 58 2 88 7 91 16
3 9 -19 12 -88 12 -69 0 -91 3 -88 12 3 7 13 13 23 13 10 0 20 6 22 13 3 7 -5
12 -21 12 -23 0 -33 9 -22 21 3 3 310 3 614 -1z m27 -200 c-4 -6 -125 -9 -338
-8 l-332 3 330 5 c182 3 334 6 338 8 5 1 5 -2 2 -8z"/>
</g>
</svg>
